<?xml version="1.0" encoding="UTF-8"?>
<svg viewBox="0 0 900 520" role="img" aria-label="Ahorro mensual segun cuanto automatizas, para cuatro niveles de riesgo lambda: todas las curvas suben hasta el piso de continuidad y despues bajan" xmlns="http://www.w3.org/2000/svg" width="900" height="520"><rect x="0" y="0" width="900" height="520" fill="#ffffff"/><text x="92" y="30" font-size="16" font-weight="700" fill="#2e3a4d" font-family="Montserrat,Helvetica,Arial,sans-serif">El riesgo de tu arquitectura decide si automatizar te conviene</text><text x="92" y="48" font-size="11.5" fill="#8a94a6" font-family="Montserrat,Helvetica,Arial,sans-serif">Mismo equipo, misma inversión: lo único que cambia es λ. Todas las curvas tienen su máximo en el piso, no en el 100%.</text><line x1="92" y1="458" x2="668" y2="458" stroke="#eef1f5" stroke-width="1"/><text x="82" y="462" font-size="11" fill="#8a94a6" text-anchor="end" font-family="Montserrat,Helvetica,Arial,sans-serif">-$7.500</text><line x1="92" y1="394.1290322580645" x2="668" y2="394.1290322580645" stroke="#eef1f5" stroke-width="1"/><text x="82" y="398.1290322580645" font-size="11" fill="#8a94a6" text-anchor="end" font-family="Montserrat,Helvetica,Arial,sans-serif">-$5.000</text><line x1="92" y1="330.2580645161291" x2="668" y2="330.2580645161291" stroke="#eef1f5" stroke-width="1"/><text x="82" y="334.2580645161291" font-size="11" fill="#8a94a6" text-anchor="end" font-family="Montserrat,Helvetica,Arial,sans-serif">-$2.500</text><line x1="92" y1="266.38709677419354" x2="668" y2="266.38709677419354" stroke="#eef1f5" stroke-width="1"/><text x="82" y="270.38709677419354" font-size="11" fill="#8a94a6" text-anchor="end" font-family="Montserrat,Helvetica,Arial,sans-serif">$0</text><line x1="92" y1="202.51612903225808" x2="668" y2="202.51612903225808" stroke="#eef1f5" stroke-width="1"/><text x="82" y="206.51612903225808" font-size="11" fill="#8a94a6" text-anchor="end" font-family="Montserrat,Helvetica,Arial,sans-serif">$2.500</text><line x1="92" y1="138.64516129032262" x2="668" y2="138.64516129032262" stroke="#eef1f5" stroke-width="1"/><text x="82" y="142.64516129032262" font-size="11" fill="#8a94a6" text-anchor="end" font-family="Montserrat,Helvetica,Arial,sans-serif">$5.000</text><line x1="92" y1="74.77419354838709" x2="668" y2="74.77419354838709" stroke="#eef1f5" stroke-width="1"/><text x="82" y="78.77419354838709" font-size="11" fill="#8a94a6" text-anchor="end" font-family="Montserrat,Helvetica,Arial,sans-serif">$7.500</text><line x1="92" y1="266.38709677419354" x2="668" y2="266.38709677419354" stroke="#2e3a4d" stroke-width="1.4"/><text x="92" y="480" font-size="11" fill="#8a94a6" text-anchor="middle" font-family="Montserrat,Helvetica,Arial,sans-serif">0%</text><text x="207.2" y="480" font-size="11" fill="#8a94a6" text-anchor="middle" font-family="Montserrat,Helvetica,Arial,sans-serif">20%</text><text x="322.4" y="480" font-size="11" fill="#8a94a6" text-anchor="middle" font-family="Montserrat,Helvetica,Arial,sans-serif">40%</text><text x="437.59999999999997" y="480" font-size="11" fill="#8a94a6" text-anchor="middle" font-family="Montserrat,Helvetica,Arial,sans-serif">60%</text><text x="552.8" y="480" font-size="11" fill="#8a94a6" text-anchor="middle" font-family="Montserrat,Helvetica,Arial,sans-serif">80%</text><text x="668" y="480" font-size="11" fill="#8a94a6" text-anchor="middle" font-family="Montserrat,Helvetica,Arial,sans-serif">100%</text><line x1="437.59999999999997" y1="58" x2="437.59999999999997" y2="458" stroke="#2e3a4d" stroke-width="1.5" stroke-dasharray="7 6"/><text x="445.59999999999997" y="74" font-size="11.5" font-weight="700" fill="#2e3a4d" font-family="Montserrat,Helvetica,Arial,sans-serif">Acá el piso toma el control (P' = 4)</text><text x="445.59999999999997" y="89" font-size="10.5" fill="#8a94a6" font-family="Montserrat,Helvetica,Arial,sans-serif">a la derecha ya no liberás a nadie más</text><path d="M 92.0 279.2 L 97.8 280.0 L 103.5 280.8 L 109.3 281.6 L 115.0 282.4 L 120.8 283.2 L 126.6 284.1 L 132.3 284.9 L 138.1 285.7 L 143.8 286.5 L 149.6 246.5 L 155.4 247.3 L 161.1 248.1 L 166.9 248.9 L 172.6 249.7 L 178.4 250.5 L 184.2 251.4 L 189.9 252.2 L 195.7 253.0 L 201.4 253.8 L 207.2 213.8 L 213.0 214.6 L 218.7 215.4 L 224.5 216.2 L 230.2 217.0 L 236.0 217.8 L 241.8 218.7 L 247.5 219.5 L 253.3 220.3 L 259.0 221.1 L 264.8 181.1 L 270.6 181.9 L 276.3 182.7 L 282.1 183.5 L 287.8 184.3 L 293.6 185.1 L 299.4 186.0 L 305.1 186.8 L 310.9 187.6 L 316.6 188.4 L 322.4 148.4 L 328.2 149.2 L 333.9 150.0 L 339.7 150.8 L 345.4 151.6 L 351.2 152.4 L 357.0 153.3 L 362.7 154.1 L 368.5 154.9 L 374.2 155.7 L 380.0 115.7 L 385.8 116.5 L 391.5 117.3 L 397.3 118.1 L 403.0 118.9 L 408.8 119.7 L 414.6 120.6 L 420.3 121.4 L 426.1 122.2 L 431.8 123.0 L 437.6 82.9 L 443.4 83.8 L 449.1 84.6 L 454.9 85.4 L 460.6 86.2 L 466.4 87.0 L 472.2 87.9 L 477.9 88.7 L 483.7 89.5 L 489.4 90.3 L 495.2 91.1 L 501.0 91.9 L 506.7 92.8 L 512.5 93.6 L 518.2 94.4 L 524.0 95.2 L 529.8 96.0 L 535.5 96.8 L 541.3 97.7 L 547.0 98.5 L 552.8 99.3 L 558.6 100.1 L 564.3 100.9 L 570.1 101.8 L 575.8 102.6 L 581.6 103.4 L 587.4 104.2 L 593.1 105.0 L 598.9 105.8 L 604.6 106.7 L 610.4 107.5 L 616.2 108.3 L 621.9 109.1 L 627.7 109.9 L 633.4 110.7 L 639.2 111.6 L 645.0 112.4 L 650.7 113.2 L 656.5 114.0 L 662.2 114.8 L 668.0 115.7" fill="none" stroke="#1F7A4D" stroke-width="2.2" stroke-linejoin="round"/><path d="M 92.0 279.2 L 97.8 280.4 L 103.5 281.6 L 109.3 282.8 L 115.0 284.1 L 120.8 285.3 L 126.6 286.5 L 132.3 287.7 L 138.1 289.0 L 143.8 290.2 L 149.6 250.5 L 155.4 251.8 L 161.1 253.0 L 166.9 254.2 L 172.6 255.5 L 178.4 256.7 L 184.2 257.9 L 189.9 259.1 L 195.7 260.4 L 201.4 261.6 L 207.2 221.9 L 213.0 223.2 L 218.7 224.4 L 224.5 225.6 L 230.2 226.8 L 236.0 228.1 L 241.8 229.3 L 247.5 230.5 L 253.3 231.7 L 259.0 233.0 L 264.8 193.3 L 270.6 194.5 L 276.3 195.8 L 282.1 197.0 L 287.8 198.2 L 293.6 199.5 L 299.4 200.7 L 305.1 201.9 L 310.9 203.1 L 316.6 204.4 L 322.4 164.7 L 328.2 165.9 L 333.9 167.2 L 339.7 168.4 L 345.4 169.6 L 351.2 170.8 L 357.0 172.1 L 362.7 173.3 L 368.5 174.5 L 374.2 175.7 L 380.0 136.1 L 385.8 137.3 L 391.5 138.5 L 397.3 139.8 L 403.0 141.0 L 408.8 142.2 L 414.6 143.4 L 420.3 144.7 L 426.1 145.9 L 431.8 147.1 L 437.6 107.5 L 443.4 108.7 L 449.1 109.9 L 454.9 111.2 L 460.6 112.4 L 466.4 113.6 L 472.2 114.8 L 477.9 116.1 L 483.7 117.3 L 489.4 118.5 L 495.2 119.7 L 501.0 121.0 L 506.7 122.2 L 512.5 123.4 L 518.2 124.6 L 524.0 125.9 L 529.8 127.1 L 535.5 128.3 L 541.3 129.5 L 547.0 130.8 L 552.8 132.0 L 558.6 133.2 L 564.3 134.5 L 570.1 135.7 L 575.8 136.9 L 581.6 138.1 L 587.4 139.4 L 593.1 140.6 L 598.9 141.8 L 604.6 143.0 L 610.4 144.3 L 616.2 145.5 L 621.9 146.7 L 627.7 147.9 L 633.4 149.2 L 639.2 150.4 L 645.0 151.6 L 650.7 152.9 L 656.5 154.1 L 662.2 155.3 L 668.0 156.5" fill="none" stroke="#FF6F00" stroke-width="3.2" stroke-linejoin="round"/><path d="M 92.0 279.2 L 97.8 281.2 L 103.5 283.2 L 109.3 285.3 L 115.0 287.3 L 120.8 289.4 L 126.6 291.4 L 132.3 293.5 L 138.1 295.5 L 143.8 297.6 L 149.6 258.7 L 155.4 260.8 L 161.1 262.8 L 166.9 264.9 L 172.6 266.9 L 178.4 268.9 L 184.2 271.0 L 189.9 273.0 L 195.7 275.1 L 201.4 277.1 L 207.2 238.3 L 213.0 240.3 L 218.7 242.4 L 224.5 244.4 L 230.2 246.5 L 236.0 248.5 L 241.8 250.5 L 247.5 252.6 L 253.3 254.6 L 259.0 256.7 L 264.8 217.8 L 270.6 219.9 L 276.3 221.9 L 282.1 224.0 L 287.8 226.0 L 293.6 228.1 L 299.4 230.1 L 305.1 232.2 L 310.9 234.2 L 316.6 236.2 L 322.4 197.4 L 328.2 199.5 L 333.9 201.5 L 339.7 203.5 L 345.4 205.6 L 351.2 207.6 L 357.0 209.7 L 362.7 211.7 L 368.5 213.8 L 374.2 215.8 L 380.0 177.0 L 385.8 179.0 L 391.5 181.1 L 397.3 183.1 L 403.0 185.1 L 408.8 187.2 L 414.6 189.2 L 420.3 191.3 L 426.1 193.3 L 431.8 195.4 L 437.6 156.5 L 443.4 158.6 L 449.1 160.6 L 454.9 162.7 L 460.6 164.7 L 466.4 166.7 L 472.2 168.8 L 477.9 170.8 L 483.7 172.9 L 489.4 174.9 L 495.2 177.0 L 501.0 179.0 L 506.7 181.1 L 512.5 183.1 L 518.2 185.1 L 524.0 187.2 L 529.8 189.2 L 535.5 191.3 L 541.3 193.3 L 547.0 195.4 L 552.8 197.4 L 558.6 199.5 L 564.3 201.5 L 570.1 203.5 L 575.8 205.6 L 581.6 207.6 L 587.4 209.7 L 593.1 211.7 L 598.9 213.8 L 604.6 215.8 L 610.4 217.8 L 616.2 219.9 L 621.9 221.9 L 627.7 224.0 L 633.4 226.0 L 639.2 228.1 L 645.0 230.1 L 650.7 232.2 L 656.5 234.2 L 662.2 236.2 L 668.0 238.3" fill="none" stroke="#D9480F" stroke-width="2.2" stroke-linejoin="round"/><path d="M 92.0 279.2 L 97.8 283.2 L 103.5 287.3 L 109.3 291.4 L 115.0 295.5 L 120.8 299.6 L 126.6 303.7 L 132.3 307.8 L 138.1 311.9 L 143.8 316.0 L 149.6 279.2 L 155.4 283.2 L 161.1 287.3 L 166.9 291.4 L 172.6 295.5 L 178.4 299.6 L 184.2 303.7 L 189.9 307.8 L 195.7 311.9 L 201.4 316.0 L 207.2 279.2 L 213.0 283.2 L 218.7 287.3 L 224.5 291.4 L 230.2 295.5 L 236.0 299.6 L 241.8 303.7 L 247.5 307.8 L 253.3 311.9 L 259.0 316.0 L 264.8 279.2 L 270.6 283.2 L 276.3 287.3 L 282.1 291.4 L 287.8 295.5 L 293.6 299.6 L 299.4 303.7 L 305.1 307.8 L 310.9 311.9 L 316.6 316.0 L 322.4 279.2 L 328.2 283.2 L 333.9 287.3 L 339.7 291.4 L 345.4 295.5 L 351.2 299.6 L 357.0 303.7 L 362.7 307.8 L 368.5 311.9 L 374.2 316.0 L 380.0 279.2 L 385.8 283.2 L 391.5 287.3 L 397.3 291.4 L 403.0 295.5 L 408.8 299.6 L 414.6 303.7 L 420.3 307.8 L 426.1 311.9 L 431.8 316.0 L 437.6 279.2 L 443.4 283.2 L 449.1 287.3 L 454.9 291.4 L 460.6 295.5 L 466.4 299.6 L 472.2 303.7 L 477.9 307.8 L 483.7 311.9 L 489.4 316.0 L 495.2 320.0 L 501.0 324.1 L 506.7 328.2 L 512.5 332.3 L 518.2 336.4 L 524.0 340.5 L 529.8 344.6 L 535.5 348.7 L 541.3 352.7 L 547.0 356.8 L 552.8 360.9 L 558.6 365.0 L 564.3 369.1 L 570.1 373.2 L 575.8 377.3 L 581.6 381.4 L 587.4 385.4 L 593.1 389.5 L 598.9 393.6 L 604.6 397.7 L 610.4 401.8 L 616.2 405.9 L 621.9 410.0 L 627.7 414.1 L 633.4 418.1 L 639.2 422.2 L 645.0 426.3 L 650.7 430.4 L 656.5 434.5 L 662.2 438.6 L 668.0 442.7" fill="none" stroke="#B02A37" stroke-width="2.2" stroke-linejoin="round"/><circle cx="437.59999999999997" cy="107.47612903225807" r="5.5" fill="#1F7A4D"/><text x="427.59999999999997" y="95.47612903225807" font-size="12" font-weight="700" fill="#1F7A4D" text-anchor="end" font-family="Montserrat,Helvetica,Arial,sans-serif">óptimo $6.220</text><circle cx="668" cy="156.52903225806455" r="5" fill="#B02A37"/><text x="662" y="178.52903225806455" font-size="12" font-weight="700" fill="#B02A37" text-anchor="end" font-family="Montserrat,Helvetica,Arial,sans-serif">al 100%: $4.300</text><line x1="686" y1="70" x2="714" y2="70" stroke="#1F7A4D" stroke-width="3"/><text x="722" y="74" font-size="11.5" font-weight="700" fill="#1F7A4D" font-family="Montserrat,Helvetica,Arial,sans-serif">λ 1,0 → $2/h de IA</text><text x="686" y="89" font-size="10" fill="#8a94a6" font-family="Montserrat,Helvetica,Arial,sans-serif">IA local con plan B</text><line x1="686" y1="122" x2="714" y2="122" stroke="#FF6F00" stroke-width="3"/><text x="722" y="126" font-size="11.5" font-weight="700" fill="#FF6F00" font-family="Montserrat,Helvetica,Arial,sans-serif">λ 1,5 → $3/h de IA</text><text x="686" y="141" font-size="10" fill="#8a94a6" font-family="Montserrat,Helvetica,Arial,sans-serif">una nube sin plan B — el</text><text x="686" y="153" font-size="10" fill="#8a94a6" font-family="Montserrat,Helvetica,Arial,sans-serif">ejemplo del sitio</text><line x1="686" y1="174" x2="714" y2="174" stroke="#D9480F" stroke-width="3"/><text x="722" y="178" font-size="11.5" font-weight="700" fill="#D9480F" font-family="Montserrat,Helvetica,Arial,sans-serif">λ 2,5 → $5/h de IA</text><text x="686" y="193" font-size="10" fill="#8a94a6" font-family="Montserrat,Helvetica,Arial,sans-serif">riesgo alto sobre un modelo</text><text x="686" y="205" font-size="10" fill="#8a94a6" font-family="Montserrat,Helvetica,Arial,sans-serif">caro</text><line x1="686" y1="226" x2="714" y2="226" stroke="#B02A37" stroke-width="3"/><text x="722" y="230" font-size="11.5" font-weight="700" fill="#B02A37" font-family="Montserrat,Helvetica,Arial,sans-serif">λ 5,0 → $10/h de IA</text><text x="686" y="245" font-size="10" fill="#8a94a6" font-family="Montserrat,Helvetica,Arial,sans-serif">la hora de IA cuesta lo mismo</text><text x="686" y="257" font-size="10" fill="#8a94a6" font-family="Montserrat,Helvetica,Arial,sans-serif">que la humana</text><text x="686" y="486" font-size="9.5" fill="#8a94a6" font-family="Montserrat,Helvetica,Arial,sans-serif">La hora humana cuesta $10.</text><text x="686" y="498" font-size="9.5" fill="#8a94a6" font-family="Montserrat,Helvetica,Arial,sans-serif">Los agravantes del sitio llegan</text><text x="686" y="510" font-size="9.5" fill="#8a94a6" font-family="Montserrat,Helvetica,Arial,sans-serif">hasta λ 1,65: más arriba es</text><text x="686" y="522" font-size="9.5" fill="#8a94a6" font-family="Montserrat,Helvetica,Arial,sans-serif">además un modelo más caro.</text><text x="380" y="506" font-size="12" font-weight="700" fill="#2e3a4d" text-anchor="middle" font-family="Montserrat,Helvetica,Arial,sans-serif">Automatización efectiva</text><text transform="translate(22 260) rotate(-90)" font-size="12" font-weight="700" fill="#2e3a4d" text-anchor="middle" font-family="Montserrat,Helvetica,Arial,sans-serif">Ahorro mensual (USD)</text></svg>
